<svg id="regular" enable-background="new 0 0 24 24" height="512" viewBox="0 0 24 24" width="512" xmlns="http://www.w3.org/2000/svg"><path d="m21.69 15.113c-.352-.221-.814-.111-1.033.24s-.111.814.24 1.033c.731.455 1.603 1.184 1.603 2.068 0 1.913-4.312 4.045-10.5 4.045s-10.5-2.131-10.5-4.044c0-.885.871-1.613 1.603-2.068.352-.219.459-.682.24-1.033s-.682-.461-1.033-.24c-1.91 1.189-2.31 2.473-2.31 3.341 0 3.161 5.159 5.545 12 5.545s12-2.384 12-5.545c0-.868-.4-2.152-2.31-3.342z"/><path d="m8.783 10.574c.405-.085.665-.481.581-.888-.085-.404-.478-.664-.887-.581-2.275.474-3.477 1.302-3.477 2.395v5.75c0 1.899 3.516 2.75 7 2.75s7-.851 7-2.75v-5.75c0-1.093-1.202-1.921-3.477-2.395-.408-.087-.803.176-.888.581-.084.406.176.803.581.888 1.723.358 2.243.849 2.285.911-.11.36-1.908 1.265-5.502 1.265-3.576 0-5.37-.894-5.5-1.21v-.013c.059-.121.587-.6 2.284-.953zm3.217 3.676c2.073 0 4.152-.304 5.5-.948v3.937c-.11.36-1.901 1.261-5.5 1.261-3.603 0-5.395-.903-5.5-1.25v-3.948c1.348.644 3.427.948 5.5.948z"/><path d="m11.52 10.059c.258.281.702.281.96 0l2.823-3.073c.28-.306.26-.78-.046-1.06-.303-.279-.78-.26-1.06.046l-1.447 1.58v-5.822c0-.414-.336-.75-.75-.75s-.75.336-.75.75v5.822l-1.447-1.579c-.279-.306-.755-.325-1.06-.046-.306.279-.326.754-.046 1.06z"/></svg>