<svg id="regular" enable-background="new 0 0 24 24" height="512" viewBox="0 0 24 24" width="512" xmlns="http://www.w3.org/2000/svg">
  <path id="svg_1" d="m21.69,15.113c-0.352,-0.221 -0.814,-0.111 -1.033,0.24s-0.111,0.814 0.24,1.033c0.731,0.455 1.603,1.184 1.603,2.068c0,1.913 -4.312,4.045 -10.5,4.045s-10.5,-2.131 -10.5,-4.044c0,-0.885 0.871,-1.613 1.603,-2.068c0.352,-0.219 0.459,-0.682 0.24,-1.033s-0.682,-0.461 -1.033,-0.24c-1.91,1.189 -2.31,2.473 -2.31,3.341c0,3.161 5.159,5.545 12,5.545s12,-2.384 12,-5.545c0,-0.868 -0.4,-2.152 -2.31,-3.342z"/>
  <path id="svg_2" d="m8.783,10.574c0.405,-0.085 0.665,-0.481 0.581,-0.888c-0.085,-0.404 -0.478,-0.664 -0.887,-0.581c-2.275,0.474 -3.477,1.302 -3.477,2.395l0,5.75c0,1.899 3.516,2.75 7,2.75s7,-0.851 7,-2.75l0,-5.75c0,-1.093 -1.202,-1.921 -3.477,-2.395c-0.408,-0.087 -0.803,0.176 -0.888,0.581c-0.084,0.406 0.176,0.803 0.581,0.888c1.723,0.358 2.243,0.849 2.285,0.911c-0.11,0.36 -1.908,1.265 -5.502,1.265c-3.576,0 -5.37,-0.894 -5.5,-1.21l0,-0.013c0.059,-0.121 0.587,-0.6 2.284,-0.953zm3.217,3.676c2.073,0 4.152,-0.304 5.5,-0.948l0,3.937c-0.11,0.36 -1.901,1.261 -5.5,1.261c-3.603,0 -5.395,-0.903 -5.5,-1.25l0,-3.948c1.348,0.644 3.427,0.948 5.5,0.948z"/>
  <path id="svg_3" d="m11.52,10.059c0.258,0.281 0.702,0.281 0.96,0l2.823,-3.073c0.28,-0.306 0.26,-0.78 -0.046,-1.06c-0.303,-0.279 -0.78,-0.26 -1.06,0.046l-1.447,1.58l0,-5.822c0,-0.414 -0.336,-0.75 -0.75,-0.75s-0.75,0.336 -0.75,0.75l0,5.822l-1.447,-1.579c-0.279,-0.306 -0.755,-0.325 -1.06,-0.046c-0.306,0.279 -0.326,0.754 -0.046,1.06l2.823,3.072z"/>
  <path fill="#ffffff" id="svg_4" d="m12.145,9.8715c0.258,0.281 0.702,0.281 0.96,0l2.823,-3.073c0.28,-0.306 0.26,-0.78 -0.046,-1.06c-0.303,-0.279 -0.78,-0.26 -1.06,0.046l-1.447,1.58l0,-5.822c0,-0.414 -0.336,-0.75 -0.75,-0.75s-0.75,0.336 -0.75,0.75l0,5.822l-1.447,-1.579c-0.279,-0.306 -0.755,-0.325 -1.06,-0.046c-0.306,0.279 -0.326,0.754 -0.046,1.06l2.823,3.072z"/>
  <path fill="#ffffff" id="svg_5" d="m9.3455,9.949c0.405,-0.085 0.665,-0.481 0.581,-0.888c-0.085,-0.404 -0.478,-0.664 -0.887,-0.581c-2.275,0.474 -3.477,1.302 -3.477,2.395l0,5.75c0,1.899 3.516,2.75 7,2.75s7,-0.851 7,-2.75l0,-5.75c0,-1.093 -1.202,-1.921 -3.477,-2.395c-0.408,-0.087 -0.803,0.176 -0.888,0.581c-0.084,0.406 0.176,0.803 0.581,0.888c1.723,0.358 2.243,0.849 2.285,0.911c-0.11,0.36 -1.908,1.265 -5.502,1.265c-3.576,0 -5.37,-0.894 -5.5,-1.21l0,-0.013c0.059,-0.121 0.587,-0.6 2.284,-0.953zm3.217,3.676c2.073,0 4.152,-0.304 5.5,-0.948l0,3.937c-0.11,0.36 -1.901,1.261 -5.5,1.261c-3.603,0 -5.395,-0.903 -5.5,-1.25l0,-3.948c1.348,0.644 3.427,0.948 5.5,0.948z"/>
  <path fill="#ffffff" id="svg_6" d="m22.1275,14.363c-0.352,-0.221 -0.814,-0.111 -1.033,0.24s-0.111,0.814 0.24,1.033c0.731,0.455 1.603,1.184 1.603,2.068c0,1.913 -4.312,4.045 -10.5,4.045s-10.5,-2.131 -10.5,-4.044c0,-0.885 0.871,-1.613 1.603,-2.068c0.352,-0.219 0.459,-0.682 0.24,-1.033s-0.682,-0.461 -1.033,-0.24c-1.91,1.189 -2.31,2.473 -2.31,3.341c0,3.161 5.159,5.545 12,5.545s12,-2.384 12,-5.545c0,-0.868 -0.4,-2.152 -2.31,-3.342z"/>
</svg>
